<svg width="159" height="79" viewBox="0 0 159 79" fill="none" xmlns="http://www.w3.org/2000/svg">
<path d="M46.6169 8.32016H39.0989V12.3759H60.6637C61.2242 11.6835 63.0576 9.90289 65.9065 8.32016H53.5414M46.6169 8.32016V4.95685H53.5414V8.12232V8.32016M46.6169 8.32016H53.5414M58.0917 14.9479C54.5965 18.8387 48.813 29.6673 53.6403 41.8543H39.0989V14.9479H58.0917Z" stroke="white"/>
<path d="M39 48.9766V45.1187H55.1241C55.5198 46.3849 57.0695 48.2182 57.795 48.9766H39Z" stroke="white"/>
<path d="M68.7752 7.23202V1H88.955V7.23202C80.1709 3.59173 71.8417 5.71523 68.7752 7.23202Z" stroke="white"/>
<path d="M96.9676 12.277C96.1763 11.1691 93.1427 9.17746 91.7248 8.32014H118.631V12.277H96.9676Z" stroke="white"/>
<path d="M118.631 41.9532H103.991C108.818 29.3705 103.101 18.6409 99.6385 14.8489H118.631V41.9532Z" stroke="white"/>
<path d="M118.631 45.2176H102.507C101.637 47.1169 100.364 48.5809 99.8363 49.0755H118.631V45.2176Z" stroke="white"/>
<path d="M102.106 32.1601C102.106 45.0523 91.6988 55.5 78.8651 55.5C66.0314 55.5 55.6241 45.0523 55.6241 32.1601C55.6241 19.2678 66.0314 8.82016 78.8651 8.82016C91.6988 8.82016 102.106 19.2678 102.106 32.1601Z" stroke="white"/>
<path d="M100.326 32.0611C100.326 43.9155 90.7596 53.5216 78.9641 53.5216C67.1685 53.5216 57.6025 43.9155 57.6025 32.0611C57.6025 20.2067 67.1685 10.6007 78.9641 10.6007C90.7596 10.6007 100.326 20.2067 100.326 32.0611Z" stroke="white"/>
<path d="M2.04 71.24V72.62C2.93333 73.0467 4.06667 73.26 5.44 73.26C6.81333 73.26 7.84667 73.0467 8.54 72.62C9.23333 72.18 9.58 71.5667 9.58 70.78C9.58 69.98 9.25333 69.3867 8.6 69C7.94667 68.6133 6.90667 68.2867 5.48 68.02C4.05333 67.74 2.98 67.3733 2.26 66.92C1.55333 66.4667 1.2 65.7533 1.2 64.78C1.2 62.6867 2.75333 61.64 5.86 61.64C7.51333 61.64 8.88 61.94 9.96 62.54C10.16 62.66 10.26 62.8 10.26 62.96V64.6C10.26 64.7333 10.2067 64.8467 10.1 64.94C9.99333 65.02 9.86667 65.06 9.72 65.06C9.57333 65.06 9.44667 65.02 9.34 64.94C9.23333 64.8467 9.18 64.7333 9.18 64.6V63.22C8.26 62.7933 7.16667 62.58 5.9 62.58C4.64667 62.58 3.72667 62.76 3.14 63.12C2.56667 63.48 2.28 64.0333 2.28 64.78C2.28 65.4867 2.65333 66.0133 3.4 66.36C3.90667 66.6133 4.58667 66.8333 5.44 67.02C6.30667 67.1933 6.92 67.3267 7.28 67.42C7.64 67.5133 8.06 67.66 8.54 67.86C9.02 68.0467 9.39333 68.26 9.66 68.5C9.92667 68.74 10.16 69.06 10.36 69.46C10.56 69.8467 10.66 70.2933 10.66 70.8C10.66 71.84 10.22 72.6667 9.34 73.28C8.47333 73.8933 7.22667 74.2 5.6 74.2C4.85333 74.2 4.04667 74.12 3.18 73.96C2.31333 73.7867 1.66 73.56 1.22 73.28C1.04667 73.1733 0.96 73.04 0.96 72.88V71.24C0.96 71.1067 1.01333 71 1.12 70.92C1.22667 70.8267 1.35333 70.78 1.5 70.78C1.64667 70.78 1.77333 70.8267 1.88 70.92C1.98667 71 2.04 71.1067 2.04 71.24ZM17.9677 72.72C18.0743 72.6533 18.1943 72.6333 18.3277 72.66C18.4743 72.6867 18.5743 72.7467 18.6277 72.84C18.681 72.92 18.7077 72.9933 18.7077 73.06C18.7077 73.26 18.6343 73.4067 18.4877 73.5C17.6877 73.9667 16.8277 74.2 15.9077 74.2C14.9877 74.2 14.3277 74.0133 13.9277 73.64C13.5277 73.2533 13.3277 72.62 13.3277 71.74V67.46H12.2077C12.0743 67.46 11.961 67.42 11.8677 67.34C11.7877 67.2467 11.7477 67.1333 11.7477 67C11.7477 66.8667 11.7877 66.7533 11.8677 66.66C11.961 66.5667 12.0743 66.52 12.2077 66.52H13.3277V63.66C13.3277 63.5267 13.381 63.42 13.4877 63.34C13.5943 63.2467 13.721 63.2 13.8677 63.2C14.0143 63.2 14.141 63.2467 14.2477 63.34C14.3543 63.42 14.4077 63.5267 14.4077 63.66V66.52H17.7677C17.901 66.52 18.0077 66.5667 18.0877 66.66C18.181 66.7533 18.2277 66.8667 18.2277 67C18.2277 67.1333 18.181 67.2467 18.0877 67.34C18.0077 67.42 17.901 67.46 17.7677 67.46H14.4077V71.74C14.4077 72.3 14.521 72.7 14.7477 72.94C14.9877 73.1667 15.421 73.28 16.0477 73.28C16.6877 73.28 17.3277 73.0933 17.9677 72.72ZM27.5858 73.06H28.5258C28.6591 73.06 28.7658 73.1067 28.8458 73.2C28.9391 73.28 28.9858 73.3867 28.9858 73.52C28.9858 73.6533 28.9391 73.7667 28.8458 73.86C28.7658 73.9533 28.6591 74 28.5258 74H27.4458C26.6191 74 26.2058 73.5467 26.2058 72.64C25.4058 73.68 24.3991 74.2 23.1858 74.2C22.4658 74.2 21.8724 74.02 21.4058 73.66C20.9524 73.2867 20.7258 72.7467 20.7258 72.04V67.84C20.7258 67.5867 20.5458 67.46 20.1858 67.46H19.4058C19.2724 67.46 19.1591 67.4133 19.0658 67.32C18.9858 67.2267 18.9458 67.1133 18.9458 66.98C18.9458 66.8467 18.9858 66.74 19.0658 66.66C19.1591 66.5667 19.2724 66.52 19.4058 66.52H20.1858C21.2658 66.52 21.8058 66.9533 21.8058 67.82V72.04C21.8058 72.44 21.9258 72.7467 22.1658 72.96C22.4191 73.1733 22.7658 73.28 23.2058 73.28C24.4324 73.28 25.4058 72.64 26.1258 71.36V66.78C26.1258 66.6467 26.1791 66.54 26.2858 66.46C26.3924 66.3667 26.5191 66.32 26.6658 66.32C26.8124 66.32 26.9391 66.3667 27.0458 66.46C27.1524 66.54 27.2058 66.6467 27.2058 66.78V72.68C27.2058 72.9333 27.3324 73.06 27.5858 73.06ZM33.5016 67.24C32.7416 67.24 32.1349 67.5133 31.6816 68.06C31.2282 68.6067 31.0016 69.3467 31.0016 70.28C31.0016 71.2133 31.2216 71.9467 31.6616 72.48C32.1149 73.0133 32.7282 73.28 33.5016 73.28C34.6216 73.28 35.5149 72.6467 36.1816 71.38V68.44C35.8349 68.1067 35.4149 67.8267 34.9216 67.6C34.4416 67.36 33.9682 67.24 33.5016 67.24ZM36.1816 59.94H34.8616C34.7282 59.94 34.6149 59.9 34.5216 59.82C34.4416 59.7267 34.4016 59.6133 34.4016 59.48C34.4016 59.3467 34.4416 59.2333 34.5216 59.14C34.6149 59.0467 34.7282 59 34.8616 59H36.7216C36.8682 59 36.9949 59.0467 37.1016 59.14C37.2082 59.2333 37.2616 59.3467 37.2616 59.48V72.68C37.2616 72.9333 37.3949 73.06 37.6616 73.06H38.5816C38.7149 73.06 38.8216 73.1067 38.9016 73.2C38.9949 73.28 39.0416 73.3867 39.0416 73.52C39.0416 73.6533 38.9949 73.7667 38.9016 73.86C38.8216 73.9533 38.7149 74 38.5816 74H37.5216C36.6549 74 36.2349 73.5267 36.2616 72.58C35.9682 73.0333 35.5816 73.42 35.1016 73.74C34.6349 74.0467 34.1016 74.2 33.5016 74.2C32.3149 74.2 31.4216 73.82 30.8216 73.06C30.2349 72.3 29.9416 71.36 29.9416 70.24C29.9416 69.12 30.2482 68.1867 30.8616 67.44C31.4882 66.6933 32.3416 66.32 33.4216 66.32C34.5016 66.32 35.4216 66.6733 36.1816 67.38V59.94ZM42.1988 73.74C42.1988 73.8733 42.1454 73.98 42.0388 74.06C41.9321 74.1533 41.8054 74.2 41.6588 74.2C41.5121 74.2 41.3854 74.1533 41.2788 74.06C41.1721 73.98 41.1188 73.8733 41.1188 73.74V67.46H39.7988C39.6654 67.46 39.5521 67.42 39.4588 67.34C39.3788 67.2467 39.3388 67.1333 39.3388 67C39.3388 66.8667 39.3788 66.7533 39.4588 66.66C39.5521 66.5667 39.6654 66.52 39.7988 66.52H41.7388C42.0454 66.52 42.1988 66.6733 42.1988 66.98V73.74ZM41.0788 63.52C40.9588 63.3867 40.8988 63.2267 40.8988 63.04C40.8988 62.8533 40.9588 62.6933 41.0788 62.56C41.1988 62.4267 41.3654 62.36 41.5788 62.36C41.7921 62.36 41.9588 62.4267 42.0788 62.56C42.2121 62.6933 42.2788 62.8533 42.2788 63.04C42.2788 63.2267 42.2121 63.3867 42.0788 63.52C41.9588 63.6533 41.7921 63.72 41.5788 63.72C41.3654 63.72 41.1988 63.6533 41.0788 63.52ZM48.1952 73.28C49.0085 73.28 49.6685 73 50.1752 72.44C50.6952 71.88 50.9552 71.16 50.9552 70.28C50.9552 69.3867 50.6952 68.66 50.1752 68.1C49.6685 67.5267 49.0085 67.24 48.1952 67.24C47.3818 67.24 46.7152 67.5267 46.1952 68.1C45.6885 68.66 45.4352 69.3867 45.4352 70.28C45.4352 71.16 45.6885 71.88 46.1952 72.44C46.7152 73 47.3818 73.28 48.1952 73.28ZM45.4152 73.1C44.7085 72.3533 44.3552 71.4067 44.3552 70.26C44.3552 69.1133 44.7152 68.1733 45.4352 67.44C46.1552 66.6933 47.0752 66.32 48.1952 66.32C49.3152 66.32 50.2285 66.6933 50.9352 67.44C51.6552 68.1733 52.0152 69.12 52.0152 70.28C52.0152 71.4267 51.6552 72.3667 50.9352 73.1C50.2285 73.8333 49.3085 74.2 48.1752 74.2C47.0552 74.2 46.1352 73.8333 45.4152 73.1ZM59.2666 73.74V62.78H58.0866C57.9532 62.78 57.8399 62.74 57.7466 62.66C57.6666 62.5667 57.6266 62.4533 57.6266 62.32C57.6266 62.1867 57.6666 62.0733 57.7466 61.98C57.8399 61.8867 57.9532 61.84 58.0866 61.84H64.3666C67.2732 61.84 68.7266 63.1533 68.7266 65.78C68.7266 68.3933 67.2732 69.7 64.3666 69.7H60.3466V73.74C60.3466 73.8733 60.2932 73.98 60.1866 74.06C60.0799 74.1533 59.9532 74.2 59.8066 74.2C59.6599 74.2 59.5332 74.1533 59.4266 74.06C59.3199 73.98 59.2666 73.8733 59.2666 73.74ZM60.3466 62.78V68.78H64.3666C66.5532 68.78 67.6466 67.78 67.6466 65.78C67.6466 63.78 66.5532 62.78 64.3666 62.78H60.3466ZM71.6973 73.74C71.6973 73.8733 71.644 73.98 71.5373 74.06C71.4307 74.1533 71.304 74.2 71.1573 74.2C71.0107 74.2 70.884 74.1533 70.7773 74.06C70.6707 73.98 70.6173 73.8733 70.6173 73.74V59.94H69.2973C69.164 59.94 69.0573 59.9 68.9773 59.82C68.884 59.7267 68.8373 59.6133 68.8373 59.48C68.8373 59.3467 68.884 59.2333 68.9773 59.14C69.0573 59.0467 69.164 59 69.2973 59H71.1773C71.3107 59 71.4307 59.0467 71.5373 59.14C71.644 59.2333 71.6973 59.3467 71.6973 59.48V67.86C72.524 66.8067 73.504 66.28 74.6373 66.28C75.384 66.28 75.9773 66.4733 76.4173 66.86C76.8707 67.2333 77.0973 67.76 77.0973 68.44V72.7C77.0973 72.94 77.2773 73.06 77.6373 73.06H78.4173C78.5507 73.06 78.6573 73.1067 78.7373 73.2C78.8307 73.2933 78.8773 73.4067 78.8773 73.54C78.8773 73.6733 78.8307 73.7867 78.7373 73.88C78.6573 73.96 78.5507 74 78.4173 74H77.6373C76.5573 74 76.0173 73.5667 76.0173 72.7V68.44C76.0173 67.6133 75.5573 67.2 74.6373 67.2C73.4107 67.2 72.4307 67.8533 71.6973 69.16V73.74ZM83.5663 73.28C84.3796 73.28 85.0396 73 85.5463 72.44C86.0663 71.88 86.3263 71.16 86.3263 70.28C86.3263 69.3867 86.0663 68.66 85.5463 68.1C85.0396 67.5267 84.3796 67.24 83.5663 67.24C82.7529 67.24 82.0863 67.5267 81.5663 68.1C81.0596 68.66 80.8063 69.3867 80.8063 70.28C80.8063 71.16 81.0596 71.88 81.5663 72.44C82.0863 73 82.7529 73.28 83.5663 73.28ZM80.7863 73.1C80.0796 72.3533 79.7263 71.4067 79.7263 70.26C79.7263 69.1133 80.0863 68.1733 80.8063 67.44C81.5263 66.6933 82.4463 66.32 83.5663 66.32C84.6863 66.32 85.5996 66.6933 86.3063 67.44C87.0263 68.1733 87.3863 69.12 87.3863 70.28C87.3863 71.4267 87.0263 72.3667 86.3063 73.1C85.5996 73.8333 84.6796 74.2 83.5463 74.2C82.4263 74.2 81.5063 73.8333 80.7863 73.1ZM94.6864 72.72C94.7931 72.6533 94.9131 72.6333 95.0464 72.66C95.1931 72.6867 95.2931 72.7467 95.3464 72.84C95.3997 72.92 95.4264 72.9933 95.4264 73.06C95.4264 73.26 95.3531 73.4067 95.2064 73.5C94.4064 73.9667 93.5464 74.2 92.6264 74.2C91.7064 74.2 91.0464 74.0133 90.6464 73.64C90.2464 73.2533 90.0464 72.62 90.0464 71.74V67.46H88.9264C88.7931 67.46 88.6797 67.42 88.5864 67.34C88.5064 67.2467 88.4664 67.1333 88.4664 67C88.4664 66.8667 88.5064 66.7533 88.5864 66.66C88.6797 66.5667 88.7931 66.52 88.9264 66.52H90.0464V63.66C90.0464 63.5267 90.0997 63.42 90.2064 63.34C90.3131 63.2467 90.4397 63.2 90.5864 63.2C90.7331 63.2 90.8597 63.2467 90.9664 63.34C91.0731 63.42 91.1264 63.5267 91.1264 63.66V66.52H94.4864C94.6197 66.52 94.7264 66.5667 94.8064 66.66C94.8997 66.7533 94.9464 66.8667 94.9464 67C94.9464 67.1333 94.8997 67.2467 94.8064 67.34C94.7264 67.42 94.6197 67.46 94.4864 67.46H91.1264V71.74C91.1264 72.3 91.2397 72.7 91.4664 72.94C91.7064 73.1667 92.1397 73.28 92.7664 73.28C93.4064 73.28 94.0464 73.0933 94.6864 72.72ZM100.305 73.28C101.118 73.28 101.778 73 102.285 72.44C102.805 71.88 103.065 71.16 103.065 70.28C103.065 69.3867 102.805 68.66 102.285 68.1C101.778 67.5267 101.118 67.24 100.305 67.24C99.4912 67.24 98.8245 67.5267 98.3045 68.1C97.7979 68.66 97.5445 69.3867 97.5445 70.28C97.5445 71.16 97.7979 71.88 98.3045 72.44C98.8245 73 99.4912 73.28 100.305 73.28ZM97.5245 73.1C96.8179 72.3533 96.4645 71.4067 96.4645 70.26C96.4645 69.1133 96.8245 68.1733 97.5445 67.44C98.2645 66.6933 99.1845 66.32 100.305 66.32C101.425 66.32 102.338 66.6933 103.045 67.44C103.765 68.1733 104.125 69.12 104.125 70.28C104.125 71.4267 103.765 72.3667 103.045 73.1C102.338 73.8333 101.418 74.2 100.285 74.2C99.1645 74.2 98.2445 73.8333 97.5245 73.1ZM107.061 74.22C106.555 74.5133 106.301 74.9467 106.301 75.52C106.301 76.1067 106.541 76.5667 107.021 76.9C107.515 77.2333 108.188 77.4 109.041 77.4C109.895 77.4 110.661 77.2533 111.341 76.96C112.021 76.6667 112.361 76.2667 112.361 75.76C112.361 75.2133 111.881 74.8867 110.921 74.78C110.588 74.7533 109.528 74.62 107.741 74.38C107.448 74.3267 107.221 74.2733 107.061 74.22ZM111.321 69.18C111.321 68.5933 111.121 68.12 110.721 67.76C110.335 67.3867 109.828 67.2 109.201 67.2C108.588 67.2 108.081 67.3867 107.681 67.76C107.295 68.12 107.101 68.5933 107.101 69.18C107.101 69.7667 107.295 70.2467 107.681 70.62C108.081 70.98 108.588 71.16 109.201 71.16C109.828 71.16 110.335 70.98 110.721 70.62C111.121 70.2467 111.321 69.7667 111.321 69.18ZM111.921 63.72C112.135 63.72 112.281 63.8333 112.361 64.06C112.548 64.5267 112.641 64.9467 112.641 65.32C112.641 66.0933 112.321 66.7467 111.681 67.28C112.161 67.7733 112.401 68.4333 112.401 69.26C112.401 70.0867 112.088 70.7667 111.461 71.3C110.848 71.82 110.095 72.08 109.201 72.08C108.801 72.08 108.421 72.0267 108.061 71.92C107.755 72.0133 107.481 72.16 107.241 72.36C107.015 72.5467 106.901 72.7333 106.901 72.92C106.901 73.1733 107.235 73.36 107.901 73.48C108.195 73.52 109.255 73.6467 111.081 73.86C112.655 74.06 113.441 74.6933 113.441 75.76C113.441 76.5867 112.968 77.22 112.021 77.66C111.088 78.1 110.088 78.32 109.021 78.32C107.968 78.32 107.068 78.0867 106.321 77.62C105.588 77.1667 105.221 76.5267 105.221 75.7C105.221 74.8733 105.575 74.2467 106.281 73.82C105.988 73.6467 105.841 73.3467 105.841 72.92C105.841 72.3333 106.301 71.86 107.221 71.5C106.435 70.9 106.041 70.1533 106.041 69.26C106.041 68.3533 106.335 67.6333 106.921 67.1C107.508 66.5533 108.215 66.28 109.041 66.28C109.881 66.28 110.541 66.4333 111.021 66.74C111.381 66.38 111.561 65.92 111.561 65.36C111.561 65.08 111.515 64.82 111.421 64.58C111.261 64.18 111.341 63.9133 111.661 63.78C111.755 63.74 111.841 63.72 111.921 63.72ZM113.822 66.52H114.842C115.682 66.52 116.116 66.9733 116.142 67.88C116.862 66.84 117.716 66.32 118.702 66.32C119.262 66.32 119.736 66.4267 120.122 66.64C120.309 66.7467 120.402 66.8867 120.402 67.06V68.74C120.402 68.8733 120.349 68.9867 120.242 69.08C120.136 69.16 120.009 69.2 119.862 69.2C119.716 69.2 119.589 69.16 119.482 69.08C119.376 68.9867 119.322 68.8733 119.322 68.74V67.34C119.149 67.2733 118.889 67.24 118.542 67.24C118.196 67.24 117.802 67.4067 117.362 67.74C116.922 68.06 116.542 68.54 116.222 69.18V73.74C116.222 73.8733 116.169 73.98 116.062 74.06C115.956 74.1533 115.829 74.2 115.682 74.2C115.536 74.2 115.409 74.1533 115.302 74.06C115.196 73.98 115.142 73.8733 115.142 73.74V67.84C115.142 67.5867 115.009 67.46 114.742 67.46H113.822C113.689 67.46 113.576 67.42 113.482 67.34C113.402 67.2467 113.362 67.1333 113.362 67C113.362 66.8667 113.402 66.7533 113.482 66.66C113.576 66.5667 113.689 66.52 113.822 66.52ZM127.042 70.9C126.162 70.66 125.408 70.54 124.782 70.54C124.168 70.54 123.662 70.66 123.262 70.9C122.875 71.14 122.682 71.48 122.682 71.92C122.682 72.3467 122.808 72.68 123.062 72.92C123.315 73.16 123.662 73.28 124.102 73.28C125.328 73.28 126.308 72.6133 127.042 71.28V70.9ZM128.642 73.06H129.422C129.555 73.06 129.662 73.1067 129.742 73.2C129.835 73.2933 129.882 73.4067 129.882 73.54C129.882 73.6733 129.835 73.7867 129.742 73.88C129.662 73.96 129.555 74 129.422 74H128.542C128.062 74 127.688 73.8933 127.422 73.68C127.168 73.4667 127.042 73.1667 127.042 72.78C127.042 72.7133 127.048 72.64 127.062 72.56C126.355 73.6533 125.328 74.2 123.982 74.2C123.235 74.2 122.648 74 122.222 73.6C121.808 73.2 121.602 72.6467 121.602 71.94C121.602 71.22 121.882 70.66 122.442 70.26C123.015 69.8467 123.722 69.64 124.562 69.64C125.415 69.64 126.242 69.78 127.042 70.06V68.68C127.042 68.04 126.808 67.6267 126.342 67.44C125.982 67.3067 125.482 67.24 124.842 67.24C124.215 67.24 123.635 67.3467 123.102 67.56V68.82C123.102 68.9533 123.048 69.0667 122.942 69.16C122.835 69.24 122.708 69.28 122.562 69.28C122.415 69.28 122.288 69.24 122.182 69.16C122.075 69.0667 122.022 68.9533 122.022 68.82V67.3C122.022 67.1267 122.108 66.9933 122.282 66.9C122.935 66.5133 123.802 66.32 124.882 66.32C125.962 66.32 126.768 66.5 127.302 66.86C127.835 67.2067 128.102 67.8133 128.102 68.68V72.68C128.102 72.9333 128.282 73.06 128.642 73.06ZM132.686 67.94C133.379 66.86 134.299 66.32 135.446 66.32C136.606 66.32 137.486 66.6933 138.086 67.44C138.699 68.1733 139.006 69.1067 139.006 70.24C139.006 71.3733 138.692 72.32 138.066 73.08C137.452 73.8267 136.592 74.2 135.486 74.2C134.392 74.2 133.486 73.82 132.766 73.06V78.12C132.766 78.2533 132.712 78.36 132.606 78.44C132.499 78.5333 132.372 78.58 132.226 78.58C132.079 78.58 131.952 78.5333 131.846 78.44C131.739 78.36 131.686 78.2533 131.686 78.12V67.84C131.686 67.5867 131.559 67.46 131.306 67.46H130.366C130.232 67.46 130.119 67.42 130.026 67.34C129.946 67.2467 129.906 67.1333 129.906 67C129.906 66.8667 129.946 66.7533 130.026 66.66C130.119 66.5667 130.232 66.52 130.366 66.52H131.446C132.299 66.52 132.712 66.9933 132.686 67.94ZM132.766 72.08C133.619 72.88 134.472 73.28 135.326 73.28C136.179 73.28 136.826 73 137.266 72.44C137.719 71.88 137.946 71.14 137.946 70.22C137.946 69.3 137.726 68.5733 137.286 68.04C136.846 67.5067 136.239 67.24 135.466 67.24C134.332 67.24 133.432 67.8733 132.766 69.14V72.08ZM142.283 73.74C142.283 73.8733 142.23 73.98 142.123 74.06C142.017 74.1533 141.89 74.2 141.743 74.2C141.597 74.2 141.47 74.1533 141.363 74.06C141.257 73.98 141.203 73.8733 141.203 73.74V59.94H139.883C139.75 59.94 139.643 59.9 139.563 59.82C139.47 59.7267 139.423 59.6133 139.423 59.48C139.423 59.3467 139.47 59.2333 139.563 59.14C139.643 59.0467 139.75 59 139.883 59H141.763C141.897 59 142.017 59.0467 142.123 59.14C142.23 59.2333 142.283 59.3467 142.283 59.48V67.86C143.11 66.8067 144.09 66.28 145.223 66.28C145.97 66.28 146.563 66.4733 147.003 66.86C147.457 67.2333 147.683 67.76 147.683 68.44V72.7C147.683 72.94 147.863 73.06 148.223 73.06H149.003C149.137 73.06 149.243 73.1067 149.323 73.2C149.417 73.2933 149.463 73.4067 149.463 73.54C149.463 73.6733 149.417 73.7867 149.323 73.88C149.243 73.96 149.137 74 149.003 74H148.223C147.143 74 146.603 73.5667 146.603 72.7V68.44C146.603 67.6133 146.143 67.2 145.223 67.2C143.997 67.2 143.017 67.8533 142.283 69.16V73.74ZM149.292 77.6L149.932 77.66C150.586 77.66 151.119 77.3867 151.532 76.84C151.852 76.4267 152.206 75.82 152.592 75.02L153.272 73.62L150.012 67.02C149.959 66.9 149.959 66.78 150.012 66.66C150.079 66.54 150.172 66.4533 150.292 66.4C150.426 66.3333 150.552 66.3 150.672 66.3C150.806 66.3 150.919 66.4 151.012 66.6L153.832 72.52L156.652 66.6C156.746 66.4 156.852 66.3 156.972 66.3C157.292 66.3 157.512 66.42 157.632 66.66C157.659 66.7267 157.672 66.7933 157.672 66.86C157.672 66.9133 157.659 66.9667 157.632 67.02L153.552 75.42C153.299 75.9533 153.092 76.3467 152.932 76.6C152.786 76.8667 152.566 77.1867 152.272 77.56C151.699 78.24 150.912 78.58 149.912 78.58C149.632 78.58 149.419 78.56 149.272 78.52C148.979 78.4533 148.852 78.28 148.892 78C148.932 77.7333 149.066 77.6 149.292 77.6Z" fill="white"/>
</svg>
